<?xml version="1.0" encoding="UTF-8"?>
<svg xmlns="http://www.w3.org/2000/svg" xmlns:xlink="http://www.w3.org/1999/xlink" width="96px" height="96px" viewBox="0 0 96 96" version="1.1">
<g id="surface1">
<path style=" stroke:none;fill-rule:nonzero;fill:rgb(0%,0%,0%);fill-opacity:1;" d="M 44.859375 0.0742188 C 44.652344 0.09375 43.996094 0.160156 43.40625 0.207031 C 29.785156 1.433594 17.027344 8.785156 8.949219 20.078125 C 4.449219 26.359375 1.570312 33.484375 0.484375 41.03125 C 0.0976562 43.664062 0.0507812 44.441406 0.0507812 48.015625 C 0.0507812 51.585938 0.0976562 52.363281 0.484375 54.996094 C 3.089844 73.003906 15.902344 88.136719 33.28125 93.742188 C 36.394531 94.742188 39.675781 95.429688 43.40625 95.839844 C 44.859375 96 51.140625 96 52.59375 95.839844 C 59.035156 95.128906 64.488281 93.535156 69.871094 90.789062 C 70.695312 90.367188 70.855469 90.253906 70.742188 90.160156 C 70.667969 90.105469 67.152344 85.386719 62.933594 79.6875 L 55.265625 69.332031 L 45.65625 55.109375 C 40.371094 47.292969 36.019531 40.898438 35.984375 40.898438 C 35.945312 40.890625 35.90625 47.207031 35.890625 54.921875 C 35.859375 68.429688 35.851562 68.972656 35.683594 69.292969 C 35.4375 69.753906 35.25 69.941406 34.859375 70.144531 C 34.558594 70.296875 34.296875 70.324219 32.878906 70.324219 L 31.257812 70.324219 L 30.828125 70.050781 C 30.546875 69.875 30.339844 69.640625 30.199219 69.367188 L 30 68.945312 L 30.019531 50.152344 L 30.046875 31.347656 L 30.339844 30.980469 C 30.488281 30.785156 30.808594 30.53125 31.03125 30.410156 C 31.417969 30.222656 31.566406 30.203125 33.1875 30.203125 C 35.101562 30.203125 35.421875 30.277344 35.917969 30.820312 C 36.058594 30.972656 41.261719 38.808594 47.484375 48.25 C 53.707031 57.6875 62.21875 70.578125 66.402344 76.90625 L 73.996094 88.40625 L 74.378906 88.152344 C 77.78125 85.941406 81.382812 82.792969 84.230469 79.511719 C 90.296875 72.546875 94.203125 64.054688 95.515625 54.996094 C 95.902344 52.363281 95.949219 51.585938 95.949219 48.015625 C 95.949219 44.441406 95.902344 43.664062 95.515625 41.03125 C 92.910156 23.023438 80.097656 7.894531 62.71875 2.289062 C 59.652344 1.292969 56.390625 0.609375 52.734375 0.195312 C 51.835938 0.101562 45.636719 0 44.859375 0.0742188 Z M 64.488281 29.078125 C 64.9375 29.304688 65.304688 29.734375 65.4375 30.183594 C 65.511719 30.429688 65.53125 35.640625 65.511719 47.386719 L 65.484375 64.242188 L 62.511719 59.683594 L 59.53125 55.128906 L 59.53125 42.878906 C 59.53125 34.957031 59.566406 30.503906 59.625 30.289062 C 59.773438 29.761719 60.101562 29.351562 60.550781 29.105469 C 60.9375 28.910156 61.078125 28.890625 62.546875 28.890625 C 63.9375 28.890625 64.179688 28.910156 64.488281 29.078125 Z M 64.488281 29.078125 "/>
<path style=" stroke:none;fill-rule:nonzero;fill:rgb(0%,0%,0%);fill-opacity:1;" d="M 73.527344 88.613281 C 73.199219 88.820312 73.09375 88.960938 73.386719 88.800781 C 73.589844 88.679688 73.929688 88.425781 73.871094 88.417969 C 73.84375 88.417969 73.683594 88.511719 73.527344 88.613281 Z M 72.878906 89.035156 C 72.710938 89.167969 72.710938 89.175781 72.917969 89.074219 C 73.027344 89.015625 73.121094 88.949219 73.121094 88.933594 C 73.121094 88.855469 73.074219 88.875 72.878906 89.035156 Z M 72.410156 89.316406 C 72.242188 89.449219 72.242188 89.457031 72.449219 89.355469 C 72.558594 89.296875 72.652344 89.230469 72.652344 89.214844 C 72.652344 89.136719 72.605469 89.15625 72.410156 89.316406 Z M 71.941406 89.597656 C 71.773438 89.730469 71.773438 89.738281 71.980469 89.636719 C 72.089844 89.578125 72.183594 89.511719 72.183594 89.496094 C 72.183594 89.417969 72.136719 89.4375 71.941406 89.597656 Z M 71.230469 89.972656 C 70.871094 90.160156 70.890625 90.234375 71.246094 90.058594 C 71.40625 89.972656 71.527344 89.886719 71.527344 89.871094 C 71.527344 89.804688 71.519531 89.8125 71.230469 89.972656 Z M 71.230469 89.972656 "/>
</g>
</svg>
